# xmcd
#
# Track frame offsets:
#	150
#	12092
#	25340
#	36668
#	50753
#	65112
#	75964
#	89775
#	106354
#	118737
#	130453
#	137775
#	151009
#	166212
#	178116
#	193578
#	212293
#	226753
#	236052
#	249625
#
# Disc length: 3473 seconds
#
# Revision: 0
# Processed by: cddbd v1.4PL0 Copyright (c) Steve Scherf et al.
# Submitted via: audiograbber 1.80
#
DISCID=160d8f14
DTITLE=Frank Sinatra - My shining hour
DYEAR=1900
DGENRE=
TTITLE0=Kiss me again
TTITLE1=The music stopped
TTITLE2=You've got a hold on me
TTITLE3=A lovely way to spend an evening 
TTITLE4=Close to you
TTITLE5=My shining hour
TTITLE6=And then you kissed me
TTITLE7=Mighty Lak'a rose
TTITLE8=Cradle song
TTITLE9=I'll follow my secret heart
TTITLE10=Just close your eyes
TTITLE11=If you are but a dream
TTITLE12=Strange music
TTITLE13=Dick Haymes, Dick Todd and Como  
TTITLE14=None but the lonely heart
TTITLE15=Ol' man river
TTITLE16=Homesick that's all
TTITLE17=The night is young and you are so beautiful 
TTITLE18=Was the last time I saw you
TTITLE19=Don't forget tonight tomorrow
EXTD=
EXTT0=
EXTT1=
EXTT2=
EXTT3=
EXTT4=
EXTT5=
EXTT6=
EXTT7=
EXTT8=
EXTT9=
EXTT10=
EXTT11=
EXTT12=
EXTT13=
EXTT14=
EXTT15=
EXTT16=
EXTT17=
EXTT18=
EXTT19=
PLAYORDER=
